<?xml version="1.0" encoding="utf-8"?>
<!-- Generator: Adobe Illustrator 16.0.3, SVG Export Plug-In . SVG Version: 6.00 Build 0)  -->
<!DOCTYPE svg PUBLIC "-//W3C//DTD SVG 1.1//EN" "http://www.w3.org/Graphics/SVG/1.1/DTD/svg11.dtd">
<svg version="1.1" id="Layer_1" xmlns="http://www.w3.org/2000/svg" xmlns:xlink="http://www.w3.org/1999/xlink" x="0px" y="0px"
	 width="162.875px" height="51.417px" viewBox="0 0 162.875 51.417" enable-background="new 0 0 162.875 51.417"
	 xml:space="preserve">
<path fill="#FFFFFF" d="M22.237,23.148c-0.99-1.7-2.34-3-4.05-3.91c-1.72-0.91-3.64-1.36-5.77-1.36c-2.12,0-4.05,0.45-5.76,1.36
	c-1.71,0.91-3.06,2.21-4.05,3.91c-0.98,1.7-1.48,3.67-1.48,5.9c0,2.26,0.49,4.23,1.46,5.92c0.98,1.69,2.31,2.99,4.01,3.891
	c1.7,0.909,3.62,1.369,5.75,1.359c2.12,0,4.05-0.45,5.78-1.359c1.72-0.91,3.09-2.21,4.09-3.91s1.5-3.67,1.5-5.9
	C23.717,26.819,23.217,24.849,22.237,23.148z M15.598,33.058c-0.9,0.94-1.98,1.4-3.25,1.4c-1.28,0-2.33-0.46-3.18-1.4
	c-0.84-0.93-1.26-2.27-1.26-4.01c0-1.76,0.43-3.11,1.28-4.03c0.86-0.92,1.94-1.38,3.23-1.38c1.28,0,2.35,0.47,3.22,1.4
	c0.87,0.94,1.3,2.27,1.3,4.01S16.487,32.128,15.598,33.058z"/>
<path fill="#FFFFFF" d="M27.315,23.131c0.922-1.687,2.206-2.984,3.855-3.893c1.647-0.909,3.536-1.363,5.666-1.363
	c2.725,0,5.003,0.714,6.833,2.142c1.83,1.428,3.03,3.439,3.602,6.035h-7.086c-0.598-1.662-1.752-2.492-3.466-2.492
	c-1.22,0-2.194,0.475-2.92,1.421c-0.727,0.948-1.09,2.306-1.09,4.067c0,1.768,0.363,3.123,1.09,4.07
	c0.727,0.946,1.7,1.422,2.92,1.422c1.713,0,2.868-0.832,3.466-2.492h7.086c-0.571,2.543-1.778,4.543-3.621,5.996
	c-1.843,1.455-4.114,2.181-6.813,2.181c-2.129,0-4.018-0.454-5.666-1.363c-1.649-0.907-2.933-2.206-3.855-3.894
	c-0.921-1.688-1.382-3.66-1.382-5.92C25.933,26.792,26.394,24.819,27.315,23.131z"/>
<path fill="#FFFFFF" d="M62.923,34.268v5.646h-3.388c-2.414,0-4.296-0.59-5.646-1.771c-1.351-1.181-2.025-3.108-2.025-5.782v-8.644
	h-2.647v-5.53h2.647v-5.295h6.659v5.295h4.36v5.53h-4.36v8.722c0,0.648,0.155,1.116,0.466,1.402
	c0.312,0.285,0.831,0.428,1.558,0.428L62.923,34.268L62.923,34.268z"/>
<path fill="#FFFFFF" d="M113.098,23.128c-0.851-1.68-2-2.98-3.45-3.89c-1.45-0.91-3.08-1.36-4.87-1.36c-1.53,0-2.87,0.31-4.01,0.93
	s-2.04,1.44-2.68,2.45v-3.07h-6.66v32.08h6.66v-13.39c0.64,0.98,1.55,1.79,2.699,2.41c1.16,0.63,2.49,0.939,3.99,0.939
	c1.79,0,3.42-0.46,4.87-1.39c1.45-0.92,2.6-2.229,3.45-3.93c0.84-1.7,1.26-3.66,1.26-5.9
	C114.357,26.779,113.938,24.818,113.098,23.128z M106.178,32.958c-0.931,0.98-2.061,1.46-3.38,1.46c-1.33,0-2.45-0.479-3.37-1.44
	c-0.92-0.96-1.38-2.27-1.38-3.93s0.46-2.97,1.38-3.93s2.04-1.44,3.37-1.44c1.35,0,2.479,0.47,3.399,1.42
	c0.931,0.95,1.391,2.25,1.391,3.91S107.117,31.989,106.178,32.958z"/>
<path fill="#FFFFFF" d="M139.316,18.186v21.728h-6.658v-2.959c-0.676,0.961-1.59,1.732-2.744,2.316
	c-1.156,0.585-2.436,0.876-3.838,0.876c-1.66,0-3.127-0.369-4.398-1.108c-1.273-0.74-2.258-1.812-2.959-3.213
	c-0.701-1.4-1.053-3.05-1.053-4.945V18.186h6.621v11.799c0,1.454,0.375,2.583,1.129,3.388c0.752,0.807,1.764,1.207,3.037,1.207
	c1.297,0,2.322-0.4,3.076-1.207c0.752-0.805,1.129-1.934,1.129-3.388V18.186H139.316z"/>
<path fill="#FFFFFF" d="M147.883,39.251c-1.48-0.648-2.648-1.537-3.504-2.668c-0.857-1.129-1.338-2.396-1.439-3.797h6.578
	c0.078,0.754,0.428,1.363,1.053,1.832c0.623,0.467,1.389,0.698,2.299,0.698c0.829,0,1.473-0.161,1.928-0.485
	c0.453-0.324,0.684-0.746,0.684-1.267c0-0.623-0.326-1.084-0.977-1.382c-0.65-0.299-1.701-0.631-3.152-0.994
	c-1.559-0.361-2.855-0.745-3.895-1.146s-1.936-1.037-2.688-1.908c-0.754-0.868-1.129-2.043-1.129-3.522
	c0-1.246,0.344-2.382,1.03-3.407s1.701-1.836,3.037-2.434s2.926-0.896,4.771-0.896c2.728,0,4.875,0.675,6.444,2.024
	c1.57,1.351,2.474,3.142,2.705,5.373h-6.149c-0.104-0.752-0.437-1.349-0.994-1.791c-0.56-0.44-1.291-0.661-2.198-0.661
	c-0.779,0-1.377,0.148-1.791,0.447c-0.416,0.299-0.623,0.707-0.623,1.227c0,0.623,0.33,1.09,0.991,1.402
	c0.662,0.311,1.693,0.622,3.097,0.934c1.608,0.416,2.92,0.826,3.935,1.229c1.013,0.4,1.899,1.052,2.666,1.945
	c0.767,0.896,1.16,2.099,1.188,3.604c0,1.271-0.356,2.408-1.069,3.406c-0.716,1-1.738,1.785-3.076,2.355
	c-1.338,0.569-2.888,0.855-4.652,0.855C151.051,40.225,149.363,39.9,147.883,39.251z"/>
<g>
	<path fill="#FFFFFF" d="M87.878,29.048c0.006,1.032-0.099,2.006-0.313,2.926c-0.519,2.031-5.774,6.067-9.308,2.145
		c0.55-0.23,1.06-0.59,1.51-1.061c0.89-0.93,1.34-2.27,1.34-4.01c0-1.58-0.35-2.82-1.08-3.74c-0.06-0.09-0.14-0.18-0.22-0.27
		c-0.33-0.34-0.67-0.62-1.05-0.83c0,0,2.397-5.515,2.431-5.502c0.395,0.154,0.782,0.339,1.16,0.532c1.72,0.91,3.07,2.21,4.05,3.92
		C87.388,24.849,87.878,26.819,87.878,29.048z"/>
</g>
<path fill="#FFFFFF" d="M81.248,37.588c-0.17,0-0.34-0.01-0.5-0.02c-0.22-0.021-0.44-0.051-0.65-0.091c-0.15-0.02-0.3-0.06-0.44-0.1
	c-0.17-0.04-0.33-0.09-0.49-0.15c-0.21-0.069-0.41-0.159-0.6-0.25c-0.11-0.05-0.23-0.109-0.33-0.17c-0.3-0.159-0.58-0.35-0.85-0.56
	c-0.42-0.35-0.79-0.73-1.12-1.16c-0.16-0.22-0.31-0.439-0.45-0.68c-1.96-3.37,0.11-7.7,1.47-10.71c0.8-1.77,1.7-3.61,2.52-5.44
	c1.38-3.04,2.53-6.04,2.57-8.61h-0.021c0.01-0.14,0.01-0.28,0.01-0.41c0-4.47-3.62-8.09-8.09-8.09c-3.34,0-6.22,2.03-7.45,4.94
	c0,0.01,0,0.01,0,0.02c-0.28,0.66-0.43,1.39-0.43,2.14c0,0.59,0.09,1.15,0.26,1.68c0.02,0.08,0.04,0.14,0.08,0.21
	c0.13,0.3,0.44,0.51,0.78,0.51c0.49,0,0.88-0.39,0.88-0.88c0-0.05-0.01-0.1-0.02-0.15c-0.03-0.08-0.05-0.16-0.08-0.24
	c0-0.01,0-0.01-0.01-0.01c-0.1-0.35-0.16-0.73-0.16-1.11c0-2.09,1.7-3.78,3.77-3.78c2.09,0,3.79,1.69,3.78,3.78
	c-0.03,3.97-10.18,13.45-10.38,20.79c-0.06,2.26,0.49,4.23,1.46,5.92c0.98,1.681,2.31,2.98,4.01,3.891
	c1.7,0.909,3.62,1.359,5.74,1.359c2.13,0,4.06-0.45,5.78-1.359c1.73-0.91,3.101-2.21,4.091-3.91c0.199-0.32,0.369-0.66,0.52-1.01
	C85.938,36.088,83.758,37.588,81.248,37.588z M75.737,12.068c0.27-0.43,0.84-0.55,1.26-0.28c0.43,0.27,0.55,0.84,0.28,1.26
	s-0.84,0.55-1.26,0.28S75.467,12.488,75.737,12.068z M71.487,21.309c-0.5,0-0.91-0.41-0.91-0.91s0.41-0.91,0.91-0.91
	c0.51,0,0.91,0.41,0.91,0.91S71.998,21.309,71.487,21.309z M73.167,18.699c-0.51,0-0.92-0.41-0.92-0.91c0-0.51,0.41-0.92,0.92-0.92
	c0.5,0,0.91,0.41,0.91,0.92C74.078,18.289,73.667,18.699,73.167,18.699z M73.917,15.168c0-0.5,0.41-0.91,0.92-0.91
	c0.5,0,0.91,0.41,0.91,0.91c0,0.51-0.41,0.92-0.91,0.92C74.328,16.088,73.917,15.679,73.917,15.168z"/>
</svg>
