<?xml version="1.0" encoding="utf-8"?>
<!-- Generator: Adobe Illustrator 16.0.3, SVG Export Plug-In . SVG Version: 6.00 Build 0)  -->
<!DOCTYPE svg PUBLIC "-//W3C//DTD SVG 1.1//EN" "http://www.w3.org/Graphics/SVG/1.1/DTD/svg11.dtd">
<svg version="1.1" id="Layer_1" xmlns="http://www.w3.org/2000/svg" xmlns:xlink="http://www.w3.org/1999/xlink" x="0px" y="0px"
	 width="512px" height="512px" viewBox="0 0 512 512" enable-background="new 0 0 512 512" xml:space="preserve">
<path fill="#312783" d="M307,208.1c0,28.16-22.83,50.99-51,50.99s-51-22.83-51-50.99c0-28.17,22.83-51,51-51S307,179.93,307,208.1z"
	/>
<path fill="#0F6BFF" d="M473.29,217.29C473.29,397.08,256,512,256,512S38.71,397.08,38.71,217.29c0-88.36,52.74-164.4,128.46-198.36
	c9.45-4.24,19.27-7.83,29.38-10.7c6.13-1.74,12.37-3.21,18.71-4.41C228.45,1.31,242.07,0,256,0c13.03,0,25.79,1.15,38.18,3.34
	C395.98,21.39,473.29,110.31,473.29,217.29z"/>
<g>
	<g>
		<path fill="#FFFFFF" d="M358.631,227.071c0.053,9.38-0.896,18.228-2.838,26.589c-4.716,18.462-52.479,55.144-84.599,19.491
			c5-2.094,9.637-5.359,13.728-9.64c8.088-8.45,12.176-20.626,12.176-36.441c0-14.363-3.183-25.634-9.815-33.991
			c-0.548-0.821-1.271-1.638-1.999-2.453c-2.999-3.088-6.087-5.636-9.545-7.545c0,0,21.79-50.124,22.092-50.008
			c3.591,1.398,7.105,3.081,10.54,4.838c15.629,8.271,27.905,20.089,36.808,35.63C354.177,188.9,358.631,206.807,358.631,227.071z"
			/>
	</g>
	<path fill="#FFFFFF" d="M298.37,304.69c-1.54,0-3.09-0.091-4.54-0.181c-2-0.189-4-0.46-5.91-0.83c-1.37-0.18-2.729-0.54-4-0.899
		c-1.55-0.37-3-0.82-4.45-1.37c-1.91-0.63-3.729-1.45-5.46-2.271c-1-0.449-2.09-1-3-1.55c-2.72-1.439-5.26-3.17-7.72-5.08
		c-3.82-3.18-7.18-6.64-10.18-10.55c-1.46-1.99-2.82-3.99-4.09-6.17c-17.81-30.63,1-69.99,13.36-97.34
		c7.271-16.09,15.45-32.81,22.9-49.45c12.54-27.63,23-54.89,23.37-78.25h-0.19c0.09-1.27,0.09-2.54,0.09-3.72
		c0-16.36-5.34-31.48-14.37-43.69C281.79,1.15,269.03,0,256,0c-13.93,0-27.55,1.31-40.74,3.82c18.14,0.97,32.58,15.93,32.49,34.3
		c-0.28,36.08-92.52,122.24-94.34,188.95c-0.55,20.54,4.45,38.45,13.27,53.8c8.9,15.28,20.99,27.09,36.44,35.36
		c15.45,8.27,32.9,12.359,52.17,12.359c19.36,0,36.9-4.09,52.53-12.359C323.54,307.96,336,296.15,345,280.7
		c1.81-2.92,3.36-6,4.72-9.181C341,291.05,321.19,304.69,298.37,304.69z M248.29,72.75c2.46-3.91,7.64-5,11.46-2.55
		c3.9,2.46,4.99,7.64,2.54,11.45c-2.45,3.82-7.63,5-11.45,2.55C247.02,81.75,245.84,76.56,248.29,72.75z M209.67,156.73
		c-4.55,0-8.27-3.73-8.27-8.28c0-4.54,3.72-8.27,8.27-8.27c4.63,0,8.27,3.73,8.27,8.27C217.94,153,214.3,156.73,209.67,156.73z
		 M224.93,133.01c-4.63,0-8.36-3.73-8.36-8.28c0-4.63,3.73-8.36,8.36-8.36c4.55,0,8.28,3.73,8.28,8.36
		C233.21,129.28,229.48,133.01,224.93,133.01z M231.75,100.92c0-4.54,3.73-8.27,8.36-8.27c4.55,0,8.28,3.73,8.28,8.27
		c0,4.64-3.73,8.36-8.28,8.36C235.48,109.28,231.75,105.56,231.75,100.92z M166.49,55.21c1.19,2.72,4.01,4.63,7.1,4.63
		c4.45,0,7.99-3.54,7.99-7.99c0-0.46-0.09-0.92-0.18-1.37c-0.27-0.73-0.45-1.45-0.73-2.18c0-0.09,0-0.09-0.09-0.09
		c-0.91-3.18-1.45-6.63-1.45-10.09c0-12.83,7.05-24,17.42-29.89c-10.11,2.87-19.93,6.46-29.38,10.7c-2.45,5.91-3.76,12.41-3.76,19.1
		c0,5.36,0.81,10.45,2.36,15.27C165.95,54.02,166.13,54.57,166.49,55.21z"/>
</g>
</svg>
